<svg width="53" height="44" xmlns="http://www.w3.org/2000/svg"><path d="M53.003 36.711c-3.444-3.776-5.29-7.9-5.681-12.34l3.726.674c-3.438-3.597-5.237-9.185-6.588-14.463-1.459 4.953-3.453 10.32-6.588 14.463l3.727-.673c-.446 4.047-1.929 6.93-4.937 9.966-3.295-2.78-5.065-5.544-6.29-9.327l3.543.673c-2.835-3.266-4.289-7.54-4.693-11.394l3.543.672C29.88 11.06 27.982 5.625 26.502.5c-1.48 5.125-3.378 10.56-6.263 14.462l3.543-.672c-.405 3.855-1.858 8.128-4.693 11.394l3.543-.673c-1.226 3.783-2.996 6.547-6.29 9.327-3.01-3.036-4.492-5.92-4.938-9.966l3.727.673c-3.134-4.143-5.129-9.51-6.588-14.463-1.35 5.278-3.15 10.866-6.588 14.463l3.727-.673c-.39 4.44-2.238 8.563-5.682 12.34h7.04V43.5h3v-6.789h14.961V43.5h3v-6.789h14.96V43.5h3v-6.789h7.042Z" fill="#FFF"/></svg>